<svg xmlns="http://www.w3.org/2000/svg" xmlns:xlink="http://www.w3.org/1999/xlink" aria-hidden="true" role="img" class="iconify iconify--logos" width="31.88" height="32" preserveAspectRatio="xMidYMid meet" viewBox="0 0 256 257"><defs><linearGradient id="IconifyId1813088fe1fbc01fb466" x1="-.828%" x2="57.636%" y1="7.652%" y2="78.411%"><stop offset="0%" stop-color="#41D1FF"></stop><stop offset="100%" stop-color="#BD34FE"></stop></linearGradient><linearGradient id="IconifyId1813088fe1fbc01fb467" x1="43.376%" x2="50.316%" y1="2.242%" y2="89.03%"><stop offset="0%" stop-color="#FFEA83"></stop><stop offset="8.333%" stop-color="#FFDD35"></stop><stop offset="100%" stop-color="#FFA800"></stop></linearGradient></defs><path fill="url(#IconifyId1813088fe1fbc01fb466)" d="M255.153 37.938L134.897 252.976c-2.483 4.144-8.861 4.553-12.064 1.08l-60.837-63.724a6.369 6.369 0 0 1 7.278-10.519l60.837 63.724a6.369 6.369 0 0 0 8.805-8.504L165.671 115.001a6.358 6.358 0 0 0-7.829-8.83l-95.39 47.618c-4.143 2.075-9.6.233-11.052-4.099l-32.902-72.552a6.364 6.364 0 0 1 8.266-8.606l32.902 72.552c.779 1.745 2.991 2.461 4.705 1.585l95.39-47.618a6.369 6.369 0 0 0 7.829 8.83l-60.404 95.559a6.368 6.368 0 0 1-7.278-10.52L184.465 39.748a6.369 6.369 0 0 1 10.688-1.81Z"></path><path fill="url(#IconifyId1813088fe1fbc01fb467)" d="M185.432.063L96.44 17.557a6.696 6.696 0 0 0-5.869 8.752l5.09 34.899c.355 2.433 2.109 4.575 4.322 5.041L180.364 74.01a6.63 6.63 0 0 0 7.58-5.093l5.093-34.899c.36-2.433-.633-4.628-2.733-5.1L185.432.063Z"></path></svg>
